<svg id="Camada_1" data-name="Camada 1" xmlns="http://www.w3.org/2000/svg" xmlns:xlink="http://www.w3.org/1999/xlink" viewBox="0 0 87.09 32.89"><defs><style>.cls-1{fill:none;}.cls-2{clip-path:url(#clip-path);}.cls-3{fill:url(#Gradiente_sem_nome_10);}.cls-4{clip-path:url(#clip-path-2);}.cls-5{clip-path:url(#clip-path-3);}.cls-6{clip-path:url(#clip-path-6);}.cls-7{fill:url(#Gradiente_sem_nome_16);}.cls-8{fill:url(#Gradiente_sem_nome_45);}.cls-9{fill:url(#Gradiente_sem_nome_44);}.cls-10{fill:url(#Gradiente_sem_nome_43);}.cls-11{fill:url(#Gradiente_sem_nome_42);}.cls-12{fill:url(#Gradiente_sem_nome_35);}.cls-13{fill:url(#Gradiente_sem_nome_12);}</style><clipPath id="clip-path"><rect class="cls-1" x="-1190.1" y="-49.62" width="1023.68" height="473.05"/></clipPath><radialGradient id="Gradiente_sem_nome_10" cx="2255.88" cy="-1309.83" r="162.01" gradientTransform="translate(-5413.28 4292.31) scale(2.38 3.19)" gradientUnits="userSpaceOnUse"><stop offset="0" stop-color="#ef35be"/><stop offset="1" stop-color="#0b0d16" stop-opacity="0"/></radialGradient><clipPath id="clip-path-2"><rect class="cls-1" x="38.11" y="495" width="71.57" height="71.57" rx="15.03"/></clipPath><clipPath id="clip-path-3"><rect class="cls-1" x="38.11" y="495" width="71.57" height="71.57"/></clipPath><clipPath id="clip-path-6"><rect class="cls-1" x="149.18" y="82.22" width="520.86" height="308.11"/></clipPath><linearGradient id="Gradiente_sem_nome_16" x1="-1392.27" y1="-1886.41" x2="-1392.13" y2="-1886.41" gradientTransform="matrix(1466.51, 3005.44, 3017.27, -1611.53, 7733836.8, 1144418.94)" gradientUnits="userSpaceOnUse"><stop offset="0" stop-color="#1f93ff"/><stop offset="1" stop-color="#ff3dc8"/></linearGradient><linearGradient id="Gradiente_sem_nome_45" x1="-1392.33" y1="-1886.44" x2="-1392.19" y2="-1886.44" gradientTransform="matrix(1631.02, 3028.61, 3046.64, -1779.82, 8018470.81, 859352.24)" gradientUnits="userSpaceOnUse"><stop offset="0" stop-color="#308cfb"/><stop offset="1" stop-color="#ff48b9"/></linearGradient><linearGradient id="Gradiente_sem_nome_44" x1="-1392.39" y1="-1886.47" x2="-1392.25" y2="-1886.47" gradientTransform="matrix(1800.38, 3043.73, 3068.26, -1952.72, 8295245.6, 554371.6)" gradientUnits="userSpaceOnUse"><stop offset="0" stop-color="#4186f7"/><stop offset="1" stop-color="#ff52aa"/></linearGradient><linearGradient id="Gradiente_sem_nome_43" x1="-1392.45" y1="-1886.49" x2="-1392.31" y2="-1886.49" gradientTransform="matrix(1980.03, 3059.38, 3090.81, -2136.1, 8588104.81, 230358.5)" gradientUnits="userSpaceOnUse"><stop offset="0" stop-color="#537ff2"/><stop offset="1" stop-color="#ff5d9a"/></linearGradient><linearGradient id="Gradiente_sem_nome_42" x1="-1392.51" y1="-1886.5" x2="-1392.37" y2="-1886.5" gradientTransform="matrix(2176.03, 3082.09, 3120.97, -2336.4, 8918084.49, -115734.71)" gradientUnits="userSpaceOnUse"><stop offset="0" stop-color="#6479ee"/><stop offset="1" stop-color="#ff678b"/></linearGradient><linearGradient id="Gradiente_sem_nome_35" x1="-1392.68" y1="-1886.51" x2="-1392.54" y2="-1886.51" gradientTransform="matrix(2848.44, 3142.65, 3207.36, -3022.88, 10017864.33, -1325977.46)" gradientUnits="userSpaceOnUse"><stop offset="0" stop-color="#9865e1"/><stop offset="1" stop-color="#ff875d"/></linearGradient><linearGradient id="Gradiente_sem_nome_12" x1="6.6" y1="-8.55" x2="95.93" y2="51.89" gradientTransform="matrix(1, 0, 0, 1, 0, 0)" xlink:href="#Gradiente_sem_nome_16"/></defs><g class="cls-2"><rect class="cls-3" x="-567.05" y="-252.07" width="1023.68" height="726.86"/></g><g class="cls-4"><g class="cls-5"><g class="cls-5"><g class="cls-5"><g class="cls-6"><g class="cls-6"><path class="cls-7" d="M-33.17,213.11h0C23,138.86,122.46,202.52,282.48,131.46c164.19-72.91,176-191.7,266.28-191.7,1.31,0,2.63,0,4,.08,109.44,4.1,224.51,173.25,224.51,291.4,0,23.56-4.57,45.09-14.68,62.88-28.18,49.6-83.1,41.52-241.11,78.19C259.78,433.05,155,514.5,77,514.5c-18.54,0-35.57-4.61-52.83-15.18C-31,465.54-62.38,386.82-62.38,315.26c0-39,9.32-75.83,29.21-102.15h0c-19.89,26.32-29.21,63.17-29.21,102.15,0,71.56,31.42,150.28,86.56,184.06C41.44,509.89,58.47,514.5,77,514.5c78,0,182.77-81.45,444.44-142.19,158-36.67,212.93-28.59,241.11-78.19,10.11-17.79,14.68-39.32,14.68-62.88,0-118.15-115.07-287.3-224.51-291.4-1.34-.05-2.66-.08-4-.08-90.31,0-102.09,118.79-266.28,191.7-160,71.06-259.53,7.4-315.65,81.65Z"/><path class="cls-8" d="M555.63-47.72h0c106,5.91,216.46,168.48,216.46,282.4,0,21.51-3.94,41.28-12.59,57.94-25.51,49.12-77.3,41.26-223.77,81.7-36.2,10-70.39,20.29-101.73,29.49C255.69,456.12,162.33,504.36,95.18,504.36c-22.67,0-42.35-5.5-61.3-18.19-49.65-33.24-77-104.42-77-170.61,0-37.58,8.8-73.55,27.31-100.07,39.18-56.12,83.13-46,169-59.05,33.16-5.06,74.45-9.94,121.47-27.05C349.41,102.19,395,62.5,432.38,27.82c43.5-40.32,69-75.71,117.48-75.71,1.89,0,3.81.06,5.77.17h0c-2-.11-3.88-.17-5.77-.17-48.46,0-74,35.39-117.48,75.71-37.42,34.68-83,74.37-157.71,101.57-47,17.11-88.31,22-121.47,27.05-85.84,13.08-129.79,2.93-169,59.05C-34.28,242-43.08,278-43.08,315.56c0,66.19,27.31,137.37,77,170.61,18.95,12.69,38.63,18.19,61.3,18.19,67.15,0,160.51-48.24,338.82-100.55,31.34-9.2,65.53-19.49,101.73-29.49C682.2,333.88,734,341.74,759.5,292.62c8.65-16.66,12.59-36.43,12.59-57.94,0-113.92-110.44-276.49-216.46-282.4Z"/><path class="cls-9" d="M558.54-35.29h0C661.15-27.66,767,128.49,767,238.26c0,19.43-3.32,37.41-10.56,52.85C733.62,339.79,684.9,332.82,550,376.33c-35.72,11.52-70.32,23.09-102.07,32.42C282.27,457.4,184.53,495.1,116.53,495.1c-28.65,0-52-6.69-73-22.08C-.56,440.58-23.92,376.81-23.92,316.1c0-36.28,8.34-71.46,25.56-98.23,37.79-58.75,62.56-56.64,142-70.33,30.87-5.32,73.46-5.8,123.28-20.22C341.08,105.84,389.27,69.62,430.8,37c47-37,72.36-72.55,120.2-72.55q3.68,0,7.54.28h0q-3.87-.28-7.54-.28C503.16-35.57,477.83,0,430.8,37c-41.53,32.64-89.72,68.86-163.93,90.34-49.82,14.42-92.41,14.9-123.28,20.22-79.39,13.69-104.16,11.58-142,70.33-17.22,26.77-25.56,61.95-25.56,98.23,0,60.71,23.36,124.48,67.49,156.92,20.94,15.39,44.31,22.08,73,22.08,68,0,165.74-37.7,331.41-86.35,31.75-9.33,66.35-20.9,102.07-32.42,134.89-43.51,183.61-36.54,206.43-85.22,7.24-15.44,10.56-33.42,10.56-52.85C767,128.49,661.15-27.66,558.54-35.29Z"/><path class="cls-10" d="M561.44-22.85h0C660.69-13.6,762,136.29,762,242c0,17.32-2.72,33.46-8.61,47.59-20.12,48.27-65.77,42.92-189.1,88.74C529,391.47,494,404.23,461.87,413.69,310.71,458.11,211.39,487,142.17,487c-37.21,0-65.72-8.35-88.9-27.14C14.65,428.56-4.93,372.08-4.93,317c0-35.1,7.94-69.63,24-96.74,36.37-61.52,42-67.33,114.93-81.6,28.59-5.59,72.3-1.81,125.1-13.4,73.41-16.13,124.46-48.55,170.14-79.11,50.42-33.72,75.7-69.43,123-69.43,3,0,6.08.14,9.27.44h0c-3.19-.3-6.27-.44-9.27-.44-47.26,0-72.54,35.71-123,69.43-45.68,30.56-96.73,63-170.14,79.11-52.8,11.59-96.51,7.81-125.1,13.4C61,152.92,55.41,158.73,19,220.25c-16,27.11-24,61.64-24,96.74,0,55.09,19.58,111.57,58.2,142.88C76.45,478.66,105,487,142.17,487c69.22,0,168.54-28.9,319.7-73.32C494,404.23,529,391.47,564.28,378.34c123.33-45.82,169-40.47,189.1-88.74C759.27,275.47,762,259.33,762,242,762,136.29,660.69-13.6,561.44-22.85Z"/><path class="cls-11" d="M564.34-10.41h0C660.29.37,757.1,144.18,757.1,246c0,15.18-2.16,29.41-6.78,42.14C732.92,336,690.39,333,578.56,380.35c-35,14.83-70.18,28.7-102.75,38.28C340.72,458.36,243.07,480.39,173,480.39c-49,0-84.49-10.74-110-33.67-33.12-29.79-49.13-79.07-49.13-128.34,0-34.06,7.65-68.12,22.6-95.75,34.87-64.42,21.45-78,87.92-92.87,9-2,20.1-2.4,33.07-2.4,8.62,0,18,.17,28.23.17,19.39,0,41.45-.64,65.61-4.36C323.68,112,377.75,83.75,427.62,55.31,481.31,24.7,506.66-11,553.35-11a97.64,97.64,0,0,1,11,.63h0a97.64,97.64,0,0,0-11-.63c-46.69,0-72,35.74-125.73,66.35C377.75,83.75,323.68,112,251.27,123.17c-24.16,3.72-46.22,4.36-65.61,4.36-10.18,0-19.61-.17-28.23-.17-13,0-24.09.4-33.07,2.4-66.47,14.82-53,28.45-87.92,92.87-14.95,27.63-22.6,61.69-22.6,95.75,0,49.27,16,98.55,49.13,128.34,25.49,22.93,61,33.67,110,33.67,70.12,0,167.77-22,302.86-61.76,32.57-9.58,67.75-23.45,102.75-38.28C690.39,333,732.92,336,750.32,288.1c4.62-12.73,6.78-27,6.78-42.14C757.1,144.18,660.29.37,564.34-10.41Z"/><path class="cls-12" d="M573.05,26.9h0c86.55,15,170.26,141.71,170.26,232.68a126.93,126.93,0,0,1-2.17,24c-9,46.88-41.39,55.37-119.75,102.8-34.21,20.72-70,37.11-103.77,47.08-88.11,26-166,37.17-230.82,37.17-97.3,0-165.32-25.19-194.74-63.36-17-22.07-24-50-24-79.87,0-32.11,8.12-66.35,20.61-97.63a100.29,100.29,0,0,0,7.56-37.6c0-33-17.5-55.84-17.5-71.31,0-7.6,4.23-13.41,16.82-17.78a22.13,22.13,0,0,1,7.21-1c19.49,0,54.94,16.36,101.51,16.36A192,192,0,0,0,227.87,117c68.42-8.48,132.38-12.33,195-34.16,62.83-21.9,88.95-57.35,134-57.35a94.24,94.24,0,0,1,16.18,1.45h0a94.24,94.24,0,0,0-16.18-1.45c-45.06,0-71.18,35.45-134,57.35-62.61,21.83-126.57,25.68-195,34.16a192,192,0,0,1-23.62,1.44c-46.57,0-82-16.36-101.51-16.36a22.13,22.13,0,0,0-7.21,1c-12.59,4.37-16.82,10.18-16.82,17.78,0,15.47,17.5,38.31,17.5,71.31a100.29,100.29,0,0,1-7.56,37.6C76.16,261.05,68,295.29,68,327.4c0,29.82,7,57.8,24,79.87,29.42,38.17,97.44,63.36,194.74,63.36,64.85,0,142.71-11.19,230.82-37.17,33.79-10,69.56-26.36,103.77-47.08,78.36-47.43,110.72-55.92,119.75-102.8a126.93,126.93,0,0,0,2.17-24c0-91-83.71-217.66-170.26-232.68Z"/></g></g></g></g></g></g><rect class="cls-13" width="87.09" height="32.89" rx="13.86"/></svg>