<svg id="Camada_1" data-name="Camada 1" xmlns="http://www.w3.org/2000/svg" xmlns:xlink="http://www.w3.org/1999/xlink" viewBox="0 0 87.09 32.89"><defs><style>.cls-1{fill:none;}.cls-2{clip-path:url(#clip-path);}.cls-3{fill:url(#Gradiente_sem_nome_10);}.cls-4{clip-path:url(#clip-path-2);}.cls-5{clip-path:url(#clip-path-3);}.cls-6{clip-path:url(#clip-path-6);}.cls-7{fill:url(#Gradiente_sem_nome_16);}.cls-8{fill:url(#Gradiente_sem_nome_45);}.cls-9{fill:url(#Gradiente_sem_nome_44);}.cls-10{fill:url(#Gradiente_sem_nome_3);}</style><clipPath id="clip-path"><rect class="cls-1" x="-1080.47" y="-49.62" width="1023.68" height="473.05"/></clipPath><radialGradient id="Gradiente_sem_nome_10" cx="2365.51" cy="-1309.83" r="162.01" gradientTransform="translate(-5564.03 4292.31) scale(2.38 3.19)" gradientUnits="userSpaceOnUse"><stop offset="0" stop-color="#ef35be"/><stop offset="1" stop-color="#0b0d16" stop-opacity="0"/></radialGradient><clipPath id="clip-path-2"><rect class="cls-1" x="147.74" y="495" width="71.57" height="71.57" rx="15.03"/></clipPath><clipPath id="clip-path-3"><rect class="cls-1" x="147.74" y="495" width="71.57" height="71.57"/></clipPath><clipPath id="clip-path-6"><rect class="cls-1" x="258.81" y="82.22" width="520.86" height="308.11"/></clipPath><linearGradient id="Gradiente_sem_nome_16" x1="-1282.64" y1="-1886.41" x2="-1282.5" y2="-1886.41" gradientTransform="matrix(1466.51, 3005.44, 3017.27, -1611.53, 7573173.48, 814933.67)" gradientUnits="userSpaceOnUse"><stop offset="0" stop-color="#1f93ff"/><stop offset="1" stop-color="#ff3dc8"/></linearGradient><linearGradient id="Gradiente_sem_nome_45" x1="-1282.7" y1="-1886.44" x2="-1282.56" y2="-1886.44" gradientTransform="matrix(1631.02, 3028.61, 3046.64, -1779.82, 7839772.32, 527326.84)" gradientUnits="userSpaceOnUse"><stop offset="0" stop-color="#308cfb"/><stop offset="1" stop-color="#ff48b9"/></linearGradient><linearGradient id="Gradiente_sem_nome_44" x1="-1282.76" y1="-1886.47" x2="-1282.62" y2="-1886.47" gradientTransform="matrix(1800.38, 3043.73, 3068.26, -1952.72, 8097980.24, 220688.61)" gradientUnits="userSpaceOnUse"><stop offset="0" stop-color="#4186f7"/><stop offset="1" stop-color="#ff52aa"/></linearGradient><linearGradient id="Gradiente_sem_nome_3" x1="6.6" y1="-8.55" x2="95.93" y2="51.89" gradientUnits="userSpaceOnUse"><stop offset="0" stop-color="#d82aaf"/><stop offset="0.17" stop-color="#ff3dc8"/><stop offset="1" stop-color="#ffc602"/></linearGradient></defs><g class="cls-2"><rect class="cls-3" x="-457.42" y="-252.07" width="1023.68" height="726.86"/></g><g class="cls-4"><g class="cls-5"><g class="cls-5"><g class="cls-5"><g class="cls-6"><g class="cls-6"><path class="cls-7" d="M76.46,213.11h0c56.12-74.25,155.63-10.59,315.64-81.65,164.2-72.91,176-191.7,266.29-191.7,1.31,0,2.63,0,4,.08,109.44,4.1,224.51,173.25,224.51,291.4,0,23.56-4.57,45.09-14.68,62.88-28.18,49.6-83.1,41.52-241.11,78.19C369.41,433.05,264.64,514.5,186.64,514.5c-18.54,0-35.57-4.61-52.83-15.18-55.14-33.78-86.56-112.5-86.56-184.06,0-39,9.32-75.83,29.21-102.15h0c-19.89,26.32-29.21,63.17-29.21,102.15,0,71.56,31.42,150.28,86.56,184.06,17.26,10.57,34.29,15.18,52.83,15.18,78,0,182.77-81.45,444.44-142.19,158-36.67,212.93-28.59,241.11-78.19,10.11-17.79,14.68-39.32,14.68-62.88,0-118.15-115.07-287.3-224.51-291.4-1.34-.05-2.66-.08-4-.08-90.31,0-102.09,118.79-266.29,191.7-160,71.06-259.52,7.4-315.64,81.65Z"/><path class="cls-8" d="M665.26-47.72h0c106,5.91,216.46,168.48,216.46,282.4,0,21.51-3.94,41.28-12.59,57.94-25.51,49.12-77.3,41.26-223.77,81.7-36.2,10-70.39,20.29-101.73,29.49C365.32,456.12,272,504.36,204.81,504.36c-22.67,0-42.35-5.5-61.31-18.19C93.86,452.93,66.55,381.75,66.55,315.56c0-37.58,8.8-73.55,27.31-100.07,39.18-56.12,83.13-46,169-59.05,33.17-5.06,74.46-9.94,121.48-27.05C459,102.19,504.59,62.5,542,27.82,585.5-12.5,611-47.89,659.49-47.89c1.89,0,3.81.06,5.77.17h0c-2-.11-3.88-.17-5.77-.17C611-47.89,585.5-12.5,542,27.82,504.59,62.5,459,102.19,384.3,129.39c-47,17.11-88.31,22-121.48,27.05C177,169.52,133,159.37,93.86,215.49,75.35,242,66.55,278,66.55,315.56c0,66.19,27.31,137.37,77,170.61,19,12.69,38.64,18.19,61.31,18.19,67.15,0,160.51-48.24,338.82-100.55,31.34-9.2,65.53-19.49,101.73-29.49,146.47-40.44,198.26-32.58,223.77-81.7,8.65-16.66,12.59-36.43,12.59-57.94,0-113.92-110.45-276.49-216.46-282.4Z"/><path class="cls-9" d="M668.17-35.29h0c102.61,7.63,208.46,163.78,208.46,273.55,0,19.43-3.32,37.41-10.56,52.85-22.82,48.68-71.54,41.71-206.43,85.22-35.72,11.52-70.32,23.09-102.08,32.42C391.9,457.4,294.16,495.1,226.16,495.1c-28.65,0-52-6.69-73-22.08-44.13-32.44-67.49-96.21-67.49-156.92,0-36.28,8.34-71.46,25.56-98.23,37.79-58.75,62.56-56.64,141.94-70.33,30.88-5.32,73.47-5.8,123.29-20.22C450.71,105.84,498.9,69.62,540.43,37c47-37,72.36-72.55,120.2-72.55q3.68,0,7.54.28h0q-3.87-.28-7.54-.28C612.79-35.57,587.46,0,540.43,37c-41.53,32.64-89.72,68.86-163.93,90.34-49.82,14.42-92.41,14.9-123.29,20.22-79.38,13.69-104.15,11.58-141.94,70.33-17.22,26.77-25.56,61.95-25.56,98.23,0,60.71,23.36,124.48,67.49,156.92,20.94,15.39,44.31,22.08,73,22.08,68,0,165.74-37.7,331.4-86.35,31.76-9.33,66.36-20.9,102.08-32.42,134.89-43.51,183.61-36.54,206.43-85.22,7.24-15.44,10.56-33.42,10.56-52.85,0-109.77-105.85-265.92-208.46-273.55Z"/></g></g></g></g></g></g><rect class="cls-10" width="87.09" height="32.89" rx="13.86"/></svg>