<svg id="Camada_1" data-name="Camada 1" xmlns="http://www.w3.org/2000/svg" xmlns:xlink="http://www.w3.org/1999/xlink" viewBox="0 0 24 24"><defs><style>.cls-1{fill:none;}.cls-2{clip-path:url(#clip-path);}.cls-3{fill:url(#Gradiente_sem_nome_14);}</style><clipPath id="clip-path"><rect class="cls-1" x="-1232.75" y="-446.13" width="722.3" height="426.12" rx="74.89"/></clipPath><linearGradient id="Gradiente_sem_nome_14" x1="0.88" y1="0.83" x2="31.28" y2="31.37" gradientUnits="userSpaceOnUse"><stop offset="0" stop-color="#1f93ff"/><stop offset="1" stop-color="#ff3dc8"/></linearGradient></defs><g class="cls-2"><image width="6693" height="3765" transform="translate(-1592.6 -907.51) scale(0.25)" xlink:href="partes_do_site/fundo.png"/></g><path class="cls-3" d="M0,12V3.31A3.2,3.2,0,0,1,3.3,0H20.67A3.18,3.18,0,0,1,24,3.26Q24,12,24,20.74A3.19,3.19,0,0,1,20.73,24c-1.55,0-3.1,0-4.65,0-.38,0-.48-.14-.48-.5,0-2.55,0-5.1,0-7.66,0-.35.13-.46.47-.45.77,0,1.54,0,2.31,0,.5,0,.66-.13.72-.63.11-.82.2-1.65.29-2.47.05-.44-.17-.67-.65-.68h-2.6c-.53,0-.54,0-.55-.52,0-.67,0-1.35,0-2A1.34,1.34,0,0,1,17,7.54c.54,0,1.08,0,1.61,0s.65-.16.66-.67v-2c0-.52-.16-.66-.69-.67H16.55a4.32,4.32,0,0,0-4.66,4.57c0,.81,0,1.61,0,2.42,0,.34-.12.45-.45.44-.53,0-1.07,0-1.61,0s-.67.18-.67.67c0,.84,0,1.68,0,2.52a.52.52,0,0,0,.59.59h1.72c.29,0,.42.09.42.4,0,2.61,0,5.23,0,7.84,0,.27-.11.36-.37.36C8.68,24,5.85,24,3,24a3.15,3.15,0,0,1-3-3.14Z"/></svg>