<svg id="Camada_1" data-name="Camada 1" xmlns="http://www.w3.org/2000/svg" xmlns:xlink="http://www.w3.org/1999/xlink" viewBox="0 0 24 24"><defs><style>.cls-1{fill:none;}.cls-2{clip-path:url(#clip-path);}.cls-3{fill:url(#Gradiente_sem_nome_3);}.cls-4{fill:url(#Gradiente_sem_nome_3-2);}.cls-5{fill:url(#Gradiente_sem_nome_3-3);}</style><clipPath id="clip-path"><rect class="cls-1" x="-1194.76" y="-446.12" width="722.3" height="426.12" rx="74.89"/></clipPath><linearGradient id="Gradiente_sem_nome_3" x1="1.55" y1="0.69" x2="24.61" y2="25.69" gradientUnits="userSpaceOnUse"><stop offset="0" stop-color="#d82aaf"/><stop offset="0.17" stop-color="#ff3dc8"/><stop offset="1" stop-color="#ffc602"/></linearGradient><linearGradient id="Gradiente_sem_nome_3-2" x1="1.55" y1="0.69" x2="24.62" y2="25.68" xlink:href="#Gradiente_sem_nome_3"/><linearGradient id="Gradiente_sem_nome_3-3" x1="8.24" y1="-5.48" x2="31.3" y2="19.52" xlink:href="#Gradiente_sem_nome_3"/></defs><g class="cls-2"><image width="6693" height="3765" transform="translate(-1554.61 -907.5) scale(0.25)" xlink:href="partes_do_site/fundo.png"/></g><path class="cls-3" d="M0,17.86V6.15C0,6.07,0,6,0,5.9A6,6,0,0,1,.54,4,6.47,6.47,0,0,1,6.65,0c3.57,0,7.13,0,10.69,0a6.36,6.36,0,0,1,3.78,1.17A6.53,6.53,0,0,1,24,6.76v10.5a6.17,6.17,0,0,1-.12,1.35,6.56,6.56,0,0,1-4.94,5.2c-.36.1-.73.11-1.08.19H6.14c-.25,0-.49-.06-.74-.12A6.58,6.58,0,0,1,.19,18.94C.09,18.59.08,18.22,0,17.86ZM2.13,12v5.2a4.66,4.66,0,0,0,.24,1.61,4.49,4.49,0,0,0,4.4,3.05H17.22a4.55,4.55,0,0,0,1.59-.24,4.48,4.48,0,0,0,3.06-4.39V6.77a4.59,4.59,0,0,0-.24-1.56,4.49,4.49,0,0,0-4.37-3.07c-3.5,0-7,0-10.52,0A4.42,4.42,0,0,0,3,4a4.48,4.48,0,0,0-.84,2.75Z"/><path class="cls-4" d="M18.18,12A6.19,6.19,0,1,1,12,5.83,6.21,6.21,0,0,1,18.18,12ZM12,8a4.05,4.05,0,1,0,4,4.05A4.05,4.05,0,0,0,12,8Z"/><path class="cls-5" d="M18.44,4a1.56,1.56,0,1,1-1.56,1.54A1.56,1.56,0,0,1,18.44,4Z"/></svg>