<svg id="Camada_1" data-name="Camada 1" xmlns="http://www.w3.org/2000/svg" xmlns:xlink="http://www.w3.org/1999/xlink" viewBox="0 0 23.89 24"><defs><style>.cls-1{fill:none;}.cls-2{clip-path:url(#clip-path);}.cls-3{fill:#fff;}</style><clipPath id="clip-path"><rect class="cls-1" x="-1269.51" y="-446.02" width="722.3" height="426.12" rx="74.89"/></clipPath></defs><g class="cls-2"><image width="6693" height="3765" transform="translate(-1629.36 -907.4) scale(0.25)" xlink:href="partes_do_site/fundo.png"/></g><path class="cls-3" d="M0,24l1.69-6.16A11.83,11.83,0,1,1,6.3,22.35Zm6.6-3.81a9.89,9.89,0,1,0-4.49-8.3,10,10,0,0,0,1.74,5.64l-1,3.64ZM18,14.73c-.07-.12-.27-.2-.57-.35s-1.75-.87-2-1-.47-.14-.67.15a13.68,13.68,0,0,1-.94,1.17c-.17.2-.34.22-.64.07a8,8,0,0,1-2.39-1.47,8.9,8.9,0,0,1-1.65-2.06c-.18-.3,0-.46.13-.61s.29-.34.44-.52a1.9,1.9,0,0,0,.3-.49.56.56,0,0,0,0-.52C9.86,9,9.27,7.52,9,6.92s-.49-.5-.67-.51H7.78A1.07,1.07,0,0,0,7,6.77,3.36,3.36,0,0,0,6,9.25a5.82,5.82,0,0,0,1.21,3.07,13.3,13.3,0,0,0,5.08,4.49,17.33,17.33,0,0,0,1.69.63,4.3,4.3,0,0,0,1.88.12,3.06,3.06,0,0,0,2-1.42A2.39,2.39,0,0,0,18,14.73Z"/></svg>