<svg id="Camada_1" data-name="Camada 1" xmlns="http://www.w3.org/2000/svg" xmlns:xlink="http://www.w3.org/1999/xlink" viewBox="0 0 192.56 67.72"><defs><style>.cls-1,.cls-2,.cls-3,.cls-4,.cls-5,.cls-6,.cls-7{fill-rule:evenodd;}.cls-1{fill:url(#Gradiente_sem_nome_14);}.cls-2{fill:url(#Gradiente_sem_nome_61);}.cls-3{fill:url(#Gradiente_sem_nome_14-2);}.cls-4{fill:#f38109;}.cls-5{fill:url(#Gradiente_sem_nome_14-3);}.cls-6{fill:url(#Gradiente_sem_nome_14-4);}.cls-7{fill:url(#Gradiente_sem_nome_14-5);}.cls-8{fill:gray;}</style><linearGradient id="Gradiente_sem_nome_14" x1="77.03" y1="0.16" x2="116.03" y2="187.36" gradientUnits="userSpaceOnUse"><stop offset="0" stop-color="#1f93ff"/><stop offset="1" stop-color="#ff3dc8"/></linearGradient><linearGradient id="Gradiente_sem_nome_61" x1="3.18" y1="15.38" x2="42.18" y2="202.6" gradientUnits="userSpaceOnUse"><stop offset="0" stop-color="#1f93ff"/><stop offset="0.86" stop-color="#ff3dc8"/></linearGradient><linearGradient id="Gradiente_sem_nome_14-2" x1="171.15" y1="-19.78" x2="210.15" y2="167.42" xlink:href="#Gradiente_sem_nome_14"/><linearGradient id="Gradiente_sem_nome_14-3" x1="114.17" y1="-7.85" x2="153.17" y2="179.35" xlink:href="#Gradiente_sem_nome_14"/><linearGradient id="Gradiente_sem_nome_14-4" x1="139.75" y1="-12.86" x2="178.92" y2="175.14" xlink:href="#Gradiente_sem_nome_14"/><linearGradient id="Gradiente_sem_nome_14-5" x1="32.41" y1="9.87" x2="71.23" y2="196.21" xlink:href="#Gradiente_sem_nome_14"/></defs><path class="cls-1" d="M97.12,13.3a16.42,16.42,0,0,0-12,5.2A16.46,16.46,0,0,0,56.65,29.79V50H65.6V29.69a7.53,7.53,0,0,1,15.05.1V50h9V29.69a7.53,7.53,0,0,1,15,.1V50h8.94V29.79A16.48,16.48,0,0,0,97.12,13.3"/><path class="cls-2" d="M14.71,43.72a7.76,7.76,0,0,1-1.34.12c-2,0-3.23-.52-3.8-1.56a8,8,0,0,1-.86-3.92V2.28C8.71-2.24,0,.86,0,3.9V38.44a24.5,24.5,0,0,0,.47,4.83,10,10,0,0,0,1.78,4A8.56,8.56,0,0,0,5.77,50a14.41,14.41,0,0,0,5.76,1c1,0,4.76-.13,5.86-.3h0A5.46,5.46,0,0,1,19,50.37a21.1,21.1,0,0,1-4.27-6.65Z"/><path class="cls-3" d="M192.56,14.57c-10.84-.23-21.13,3.54-21.13,16.44V50h8.95V31c0-7.79,6.65-7.92,12.18-8Z"/><path class="cls-4" d="M116.84,5.69a5.65,5.65,0,0,1,1.57-4,5.36,5.36,0,0,1,4-1.7,5.56,5.56,0,0,1,4.09,1.62,5.35,5.35,0,0,1,1.67,4.07,5.38,5.38,0,0,1-1.67,4.07,5.61,5.61,0,0,1-4.09,1.63,5.4,5.4,0,0,1-4-1.7,5.72,5.72,0,0,1-1.57-4"/><path class="cls-5" d="M118.08,16.12c0-2.62,6.87.36,8.88-1.65V50h-8.88Z"/><path class="cls-6" d="M161.67,19.61a18,18,0,0,0-12.49-4.77,17.58,17.58,0,0,0-17.75,17.67,17.58,17.58,0,0,0,9.94,16,18.08,18.08,0,0,0,7.81,1.67A19,19,0,0,0,158,47.91a21.59,21.59,0,0,1,1.21,2H167V32.76C167,27.16,165.16,22.78,161.67,19.61Zm-6.2,19.26h0a8.8,8.8,0,0,1-12.55,0h0a9.08,9.08,0,0,1,0-12.72h0a8.8,8.8,0,0,1,12.55,0h0a9.08,9.08,0,0,1,0,12.72Z"/><path class="cls-7" d="M52.18,14.84h-9v20h0a7.55,7.55,0,0,1-15.09,0h0v-20H19.23v20a16.48,16.48,0,1,0,33,0Z"/><path class="cls-8" d="M163.58,60.58a.16.16,0,0,0-.18.18V61.9c0,.11.06.17.18.17h1.83v5.47c0,.12.06.18.17.18h1.26c.11,0,.17-.06.17-.18V62.07h1.83a.15.15,0,0,0,.17-.17V60.76c0-.12-.06-.18-.17-.18Z"/><path class="cls-8" d="M145.66,64.82h2.48c.12,0,.18-.06.18-.17V63.57c0-.11-.06-.17-.18-.17h-2.48V62h2.81c.12,0,.18-.06.18-.17v-1.1a.16.16,0,0,0-.18-.18h-4.24a.16.16,0,0,0-.18.18v6.78a.16.16,0,0,0,.18.18h4.4a.16.16,0,0,0,.18-.18v-1.1a.16.16,0,0,0-.18-.17h-3Z"/><path class="cls-8" d="M125,67.72c.11,0,.17-.06.17-.18V66c0-.88-.07-1.94-.16-2.85h0a21.78,21.78,0,0,0,1.16,2.33l1.3,2.15a.24.24,0,0,0,.21.12H129c.11,0,.17-.06.17-.18V60.76c0-.12-.06-.18-.17-.18h-1.23a.16.16,0,0,0-.18.18v1.79c0,.83,0,1.77.11,2.67h0c-.22-.5-.65-1.34-1.07-2.14L125.3,60.7a.21.21,0,0,0-.2-.12h-1.33a.16.16,0,0,0-.18.18v6.78a.16.16,0,0,0,.18.18Z"/><path class="cls-8" d="M109,67.51l-1.6-2.41A2.1,2.1,0,0,0,108.88,63c0-1.48-1-2.41-2.66-2.41h-2.43a.16.16,0,0,0-.18.18v6.78a.16.16,0,0,0,.18.18H105a.16.16,0,0,0,.18-.18v-2.2h.64l1.39,2.26a.21.21,0,0,0,.2.12h1.47C109.06,67.72,109.11,67.63,109,67.51Zm-2.87-3.57h-1V62.06h1c.74,0,1.06.3,1.06.94S106.91,63.94,106.17,63.94Z"/><path class="cls-8" d="M85.52,64.82H88c.12,0,.18-.06.18-.17V63.57c0-.11-.06-.17-.18-.17H85.52V62h2.81c.12,0,.18-.06.18-.17v-1.1a.16.16,0,0,0-.18-.18H84.09a.16.16,0,0,0-.18.18v6.78a.16.16,0,0,0,.18.18h4.4a.16.16,0,0,0,.18-.18v-1.1a.16.16,0,0,0-.18-.17h-3Z"/><path class="cls-8" d="M63.58,60.58a.16.16,0,0,0-.18.18V61.9c0,.11.06.17.18.17h1.83v5.47c0,.12.06.18.17.18h1.26c.11,0,.17-.06.17-.18V62.07h1.83A.15.15,0,0,0,69,61.9V60.76c0-.12-.06-.18-.17-.18Z"/><path class="cls-8" d="M44.46,67.72c.11,0,.17-.06.17-.18V66c0-.88-.07-1.94-.16-2.85h0a21.78,21.78,0,0,0,1.16,2.33L47,67.6a.24.24,0,0,0,.21.12H48.5c.11,0,.17-.06.17-.18V60.76c0-.12-.06-.18-.17-.18H47.26a.16.16,0,0,0-.18.18v1.79c0,.83,0,1.77.11,2.67h0c-.22-.5-.65-1.34-1.07-2.14L44.75,60.7a.21.21,0,0,0-.2-.12H43.22a.16.16,0,0,0-.18.18v6.78a.16.16,0,0,0,.18.18Z"/><rect class="cls-8" x="26.56" y="60.58" width="1.61" height="7.14" rx="0.18"/></svg>