<svg id="Camada_1" data-name="Camada 1" xmlns="http://www.w3.org/2000/svg" viewBox="0 0 107.26 13.55"><defs><style>.cls-1{fill:#1f93ff;}</style></defs><path class="cls-1" d="M8.36,9.42a4.28,4.28,0,0,1-2.55.78,3.57,3.57,0,0,1-2.5-.8,2.9,2.9,0,0,1-.87-2.24V5a2.87,2.87,0,0,1,.89-2.23A3.59,3.59,0,0,1,5.81,2a4.22,4.22,0,0,1,2.37.67c.12.09.14.19.05.3L7.38,4.28a.2.2,0,0,1-.31.06A2.33,2.33,0,0,0,5.89,4,1.33,1.33,0,0,0,5,4.34a1.06,1.06,0,0,0-.33.8V7A1.07,1.07,0,0,0,5,7.86a1.24,1.24,0,0,0,.88.3,2.5,2.5,0,0,0,1.35-.38q.19-.12.3.06l.86,1.31C8.44,9.27,8.44,9.36,8.36,9.42Z"/><path class="cls-1" d="M12.05,10.11a3.73,3.73,0,0,1-.84.09A2.18,2.18,0,0,1,9.6,9.63,2.11,2.11,0,0,1,9,8.05V2.37a.19.19,0,0,1,.22-.22h1.6a.19.19,0,0,1,.22.22V7.69c0,.43.19.64.57.64h.29c.16,0,.23.06.23.21V9.88C12.15,10,12.12,10.09,12.05,10.11Z"/><path class="cls-1" d="M14.9,2.51a1.06,1.06,0,0,1-.31.79,1,1,0,0,1-.79.31A1.09,1.09,0,0,1,13,3.3a1.07,1.07,0,0,1-.32-.79,1.13,1.13,0,0,1,.31-.8,1.13,1.13,0,0,1,.82-.3,1,1,0,0,1,1.1,1.1Zm-.31,7.54H13a.2.2,0,0,1-.22-.23V4.5A.2.2,0,0,1,13,4.28h1.6c.15,0,.23.07.23.22V9.82A.21.21,0,0,1,14.59,10.05Z"/><path class="cls-1" d="M15.73,6.7a2.49,2.49,0,0,1,.74-1.86,2.68,2.68,0,0,1,2-.72,7,7,0,0,1,2.42.41.26.26,0,0,1,.17.26v7.13c0,.15-.07.23-.22.23h-1.6c-.15,0-.22-.08-.22-.23V10.07a2.59,2.59,0,0,1-.88.13,2.27,2.27,0,0,1-1.72-.68,2.61,2.61,0,0,1-.64-1.84Zm2.08,1c0,.47.21.7.63.7A1.78,1.78,0,0,0,19,8.36V6a1.46,1.46,0,0,0-.52-.08c-.43,0-.64.23-.64.7Z"/><path class="cls-1" d="M25.4,4.28H27a.19.19,0,0,1,.22.22v5a.25.25,0,0,1-.16.26,6.37,6.37,0,0,1-2.38.45,2.61,2.61,0,0,1-2-.7A2.67,2.67,0,0,1,22,7.57V4.5a.19.19,0,0,1,.22-.22h1.61a.19.19,0,0,1,.22.22V7.6a1,1,0,0,0,.15.62.57.57,0,0,0,.46.18,1.3,1.3,0,0,0,.5-.08V4.5A.19.19,0,0,1,25.4,4.28Z"/><path class="cls-1" d="M33.33,6.53v1a.19.19,0,0,1-.22.22H30.2v.05c0,.48.25.71.75.71a2.5,2.5,0,0,0,1.26-.31.19.19,0,0,1,.29.06l.67.9a.21.21,0,0,1,0,.31,3.59,3.59,0,0,1-2.26.71,3,3,0,0,1-2-.63,2.25,2.25,0,0,1-.75-1.8V6.53a2.21,2.21,0,0,1,.72-1.8,2.89,2.89,0,0,1,1.94-.61,2.75,2.75,0,0,1,1.86.59A2.3,2.3,0,0,1,33.33,6.53Zm-1.95-.12q0-.66-.6-.66c-.39,0-.58.22-.58.66v.18h1.18Z"/><path class="cls-1" d="M36.39,4.71a4.54,4.54,0,0,1,2.36-.59q2.52,0,2.52,2.67V9.66a.23.23,0,0,1-.19.24,8.21,8.21,0,0,1-2.32.3C37,10.2,36,9.55,36,8.24c0-1.12.8-1.67,2.4-1.67a4.65,4.65,0,0,1,.78,0v0a.77.77,0,0,0-.16-.54.78.78,0,0,0-.61-.19,2.79,2.79,0,0,0-1.25.25.19.19,0,0,1-.3-.07L36.39,5C36.32,4.85,36.32,4.76,36.39,4.71Zm1.73,3.46q0,.45.63.45a2.56,2.56,0,0,0,.47,0V7.82a2.8,2.8,0,0,0-.48-.05C38.32,7.77,38.12,7.9,38.12,8.17Z"/><path class="cls-1" d="M42.12,6.7a2.46,2.46,0,0,1,.74-1.86,2.66,2.66,0,0,1,1.94-.72,6.94,6.94,0,0,1,2.42.41.26.26,0,0,1,.18.26v7.13a.2.2,0,0,1-.22.23h-1.6a.21.21,0,0,1-.23-.23V10.07a2.59,2.59,0,0,1-.88.13,2.24,2.24,0,0,1-1.71-.68,2.56,2.56,0,0,1-.64-1.84Zm2.07,1c0,.47.21.7.63.7a1.74,1.74,0,0,0,.53-.08V6a1.44,1.44,0,0,0-.51-.08c-.43,0-.65.23-.65.7Z"/><path class="cls-1" d="M51.78,4.28h1.61a.2.2,0,0,1,.22.22v5a.26.26,0,0,1-.17.26,6.32,6.32,0,0,1-2.37.45,2.63,2.63,0,0,1-2-.7,2.71,2.71,0,0,1-.67-1.93V4.5a.2.2,0,0,1,.22-.22h1.62a.19.19,0,0,1,.22.22V7.6a1,1,0,0,0,.15.62.56.56,0,0,0,.46.18,1.24,1.24,0,0,0,.49-.08V4.5A.2.2,0,0,1,51.78,4.28Z"/><path class="cls-1" d="M56.81,2.51a1.06,1.06,0,0,1-.31.79,1,1,0,0,1-.79.31,1.12,1.12,0,0,1-.82-.31,1.06,1.06,0,0,1-.31-.79,1.09,1.09,0,0,1,.31-.8,1.13,1.13,0,0,1,.82-.3,1,1,0,0,1,1.1,1.1Zm-.31,7.54H54.9c-.15,0-.22-.08-.22-.23V4.5a.19.19,0,0,1,.22-.22h1.6a.19.19,0,0,1,.22.22V9.82C56.72,10,56.65,10.05,56.5,10.05Z"/><path class="cls-1" d="M65,6.53v1a.19.19,0,0,1-.22.22H61.87v.05c0,.48.25.71.75.71a2.5,2.5,0,0,0,1.26-.31.2.2,0,0,1,.3.06l.66.9a.21.21,0,0,1,0,.31,3.61,3.61,0,0,1-2.26.71,3,3,0,0,1-2-.63,2.25,2.25,0,0,1-.75-1.8V6.53a2.24,2.24,0,0,1,.71-1.8,2.9,2.9,0,0,1,1.95-.61,2.75,2.75,0,0,1,1.86.59A2.33,2.33,0,0,1,65,6.53Zm-2-.12c0-.44-.19-.66-.59-.66s-.59.22-.59.66v.18h1.18Z"/><path class="cls-1" d="M72.56,9.61a3.23,3.23,0,0,1-1.94.59,2.82,2.82,0,0,1-2-.68,2.5,2.5,0,0,1-.71-1.89v-1a2.43,2.43,0,0,1,.71-1.84,2.86,2.86,0,0,1,2-.67,3.54,3.54,0,0,1,1.83.5.2.2,0,0,1,.06.31L71.79,6a.22.22,0,0,1-.31.08,1.64,1.64,0,0,0-.76-.18.77.77,0,0,0-.54.19.68.68,0,0,0-.21.53v1a.77.77,0,0,0,.21.59.76.76,0,0,0,.54.19,1.57,1.57,0,0,0,.84-.24.21.21,0,0,1,.31.06l.72,1.09A.19.19,0,0,1,72.56,9.61Z"/><path class="cls-1" d="M78.5,7.76a2.32,2.32,0,0,1-.71,1.8,3.43,3.43,0,0,1-4,0,2.29,2.29,0,0,1-.71-1.8V6.58a2.29,2.29,0,0,1,.71-1.81,3.39,3.39,0,0,1,4,0,2.33,2.33,0,0,1,.71,1.81Zm-3.34,0a.63.63,0,1,0,1.26,0V6.58q0-.66-.63-.66t-.63.66Z"/><path class="cls-1" d="M81.24,10.05h-1.6c-.15,0-.22-.08-.22-.23v-5a.24.24,0,0,1,.16-.25A6.3,6.3,0,0,1,82,4.12a2.71,2.71,0,0,1,2,.7,2.69,2.69,0,0,1,.68,1.93V9.82a.2.2,0,0,1-.22.23H82.84a.2.2,0,0,1-.22-.23V6.72a1,1,0,0,0-.15-.62A.6.6,0,0,0,82,5.92a2.06,2.06,0,0,0-.53.07V9.82C81.46,10,81.39,10.05,81.24,10.05Z"/><path class="cls-1" d="M88.74,3.76a3.25,3.25,0,0,0-.42,0c-.39,0-.58.2-.58.62v.12h.83a.2.2,0,0,1,.22.22V6a.2.2,0,0,1-.22.22h-.83V9.82a.2.2,0,0,1-.22.23H85.91a.2.2,0,0,1-.22-.23V4.23a2.24,2.24,0,0,1,.59-1.66A2.28,2.28,0,0,1,88,2a4.63,4.63,0,0,1,.77.06.22.22,0,0,1,.19.24V3.55a.23.23,0,0,1,0,.16A.11.11,0,0,1,88.74,3.76Z"/><path class="cls-1" d="M91.66,2.51a1.06,1.06,0,0,1-1.11,1.1,1.09,1.09,0,0,1-.81-.31,1.06,1.06,0,0,1-.31-.79,1.09,1.09,0,0,1,.31-.8,1.23,1.23,0,0,1,1.61,0A1.09,1.09,0,0,1,91.66,2.51Zm-.31,7.54h-1.6c-.15,0-.22-.08-.22-.23V4.5a.19.19,0,0,1,.22-.22h1.6a.19.19,0,0,1,.22.22V9.82C91.57,10,91.5,10.05,91.35,10.05Z"/><path class="cls-1" d="M94.47,10.05H92.86a.2.2,0,0,1-.22-.23v-5a.28.28,0,0,1,.16-.26,4.64,4.64,0,0,1,2.13-.48,6.6,6.6,0,0,1,1,.11.23.23,0,0,1,.19.25V5.7c0,.16-.07.22-.23.2a4.12,4.12,0,0,0-.51,0,1.85,1.85,0,0,0-.71.12V9.82A.2.2,0,0,1,94.47,10.05Z"/><path class="cls-1" d="M96.74,4.71a4.53,4.53,0,0,1,2.35-.59q2.52,0,2.52,2.67V9.66a.22.22,0,0,1-.18.24,8.26,8.26,0,0,1-2.32.3c-1.82,0-2.72-.65-2.72-2,0-1.12.8-1.67,2.4-1.67a4.8,4.8,0,0,1,.78,0v0a.78.78,0,0,0-.17-.54.76.76,0,0,0-.6-.19,2.76,2.76,0,0,0-1.25.25.19.19,0,0,1-.3-.07L96.74,5C96.67,4.85,96.67,4.76,96.74,4.71Zm1.72,3.46q0,.45.63.45a2.59,2.59,0,0,0,.48,0V7.82a2.81,2.81,0,0,0-.49-.05C98.67,7.77,98.46,7.9,98.46,8.17Z"/><path class="cls-1" d="M104.51,4.43a1.06,1.06,0,0,1,.31.81,1.06,1.06,0,0,1-.31.81,1.11,1.11,0,0,1-1.91-.81,1.13,1.13,0,0,1,1.91-.81Zm0,3.83a1.08,1.08,0,0,1,.31.81,1,1,0,0,1-1.12,1.12,1.09,1.09,0,0,1-.8-.3,1.13,1.13,0,0,1-.3-.82,1.11,1.11,0,0,1,.3-.81,1.23,1.23,0,0,1,1.61,0Z"/></svg>