<svg id="Camada_1" data-name="Camada 1" xmlns="http://www.w3.org/2000/svg" xmlns:xlink="http://www.w3.org/1999/xlink" viewBox="0 0 104.14 63.6"><defs><style>.cls-1{fill:none;clip-rule:evenodd;}.cls-2{clip-path:url(#clip-path);}.cls-3{fill:url(#Gradiente_sem_nome_12);}.cls-4{clip-path:url(#clip-path-2);}.cls-5{fill:url(#Gradiente_sem_nome_3);}.cls-6{clip-path:url(#clip-path-3);}.cls-7{opacity:0.17;fill:url(#Gradiente_sem_nome_12-2);}</style><clipPath id="clip-path"><path class="cls-1" d="M.46,42.43C3.61,57,13.8,63.6,25.79,63.08c-12.95-2.64-18.92-11-18-22.79C10,30.16,18.12,23.88,29.11,24.51c19.47,2.47,39.81,17.82,58.51,15C104,36.21,110.4,15,96.59,4.58A22.26,22.26,0,0,0,83.06.19c9.21,1.69,14.84,8.53,12.79,17.6-3.19,8.91-10.93,12.52-24.64,7.68C56.8,21.16,43.93,12.88,28,12.55,9.89,12-2.58,26.69.46,42.43"/></clipPath><linearGradient id="Gradiente_sem_nome_12" x1="19.84" y1="27.37" x2="93.29" y2="36.91" gradientUnits="userSpaceOnUse"><stop offset="0" stop-color="#1f93ff"/><stop offset="1" stop-color="#ff3dc8"/></linearGradient><clipPath id="clip-path-2"><path class="cls-1" d="M18.46,26.39c-7.59,6.57-6.76,15.07.09,19.87,5.75,3,11,2,16.31-1.83A99.69,99.69,0,0,0,48.74,29.88,129.11,129.11,0,0,1,65.9,8.9C70.13,5.1,75.68.67,83.37.24c9,1.79,14.51,8.58,12.48,17.55a14.42,14.42,0,0,1-6.08,7.93A9,9,0,0,0,91.94,16c-1-2.53-4.07-6.45-10-4.64-6.35,2-10.06,7.33-14,13.19C62.08,34.06,51.74,50.39,42.75,57c-5.22,3.81-10.66,6.13-16.49,6.46L25,63.1l.79,0c-12.95-2.64-18.92-11-18-22.79,1.45-6.46,5.27-11.36,10.7-13.9"/></clipPath><linearGradient id="Gradiente_sem_nome_3" x1="84.39" y1="1.3" x2="18.09" y2="64.51" gradientUnits="userSpaceOnUse"><stop offset="0" stop-color="#d82aaf"/><stop offset="0.17" stop-color="#ff3dc8"/><stop offset="1" stop-color="#ffc602"/></linearGradient><clipPath id="clip-path-3"><path class="cls-1" d="M48.6,30.05l.14-.17c2.26-3.41,4.68-6.77,7.3-10,4,1.6,7.89,3.22,11.92,4.6l-.07.1c-1.82,3-4.09,6.64-6.62,10.46-4.21-1.57-8.44-3.31-12.67-4.94"/></clipPath><linearGradient id="Gradiente_sem_nome_12-2" x1="52.78" y1="25.3" x2="67.87" y2="31.09" xlink:href="#Gradiente_sem_nome_12"/></defs><g class="cls-2"><rect class="cls-3" x="-2.58" width="112.98" height="63.6"/></g><g class="cls-4"><rect class="cls-5" x="6.87" y="0.24" width="91.01" height="63.17"/></g><g class="cls-6"><rect class="cls-7" x="48.6" y="19.83" width="19.36" height="15.15"/></g></svg>